<?xml version="1.0" encoding="UTF-8" standalone="no"?><!DOCTYPE svg PUBLIC "-//W3C//DTD SVG 1.1//EN" "http://www.w3.org/Graphics/SVG/1.1/DTD/svg11.dtd"><svg width="100%" height="100%" viewBox="0 0 1344 756" version="1.1" xmlns="http://www.w3.org/2000/svg" xmlns:xlink="http://www.w3.org/1999/xlink" xml:space="preserve" style="fill-rule:evenodd;clip-rule:evenodd;stroke-linecap:round;stroke-linejoin:round;stroke-miterlimit:1.41421;"><g><g><path d="M914.614,421.309c6.32,-30.822 29.083,-47.934 60.895,-57.502" style="fill:none;stroke-width:13px;stroke:#0f1642;"/><path d="M1006.4,753.464l-46.609,-117.147c0,0 -58.514,-144.083 -72.86,-185.364c-6.971,-20.06 -13.214,-62.324 -13.214,-62.324c-3.555,-19.171 -5.2,-39.425 -2.501,-62.145c-4.944,-23.957 -12.862,-47.246 -25.536,-69.466c-4.007,-12.323 -4.037,-24.645 -0.714,-36.966c3.791,-27.503 20.454,-39.352 54.109,-30.537c22.638,13.929 39.531,33.256 49.287,59.288c17.686,34.321 42.169,78.465 64.109,93.753c5.695,3.968 12.864,-7.21 23.157,-10.348c32.762,-9.988 78.811,-30.903 78.811,-30.903" style="fill:none;stroke-width:13px;stroke:#0f1642;"/><path d="M1130.69,205.945c-33.393,8.531 -53.353,26.483 -51.788,56.966l-3.75,52.323" style="fill:none;stroke-width:13px;stroke:#0f1642;"/><path d="M1077.83,270.054c-12.46,-5.917 -32.714,-2.417 -54.288,2.679l-26.608,20.357l-10.536,18.751c5.962,11.223 12.544,18.412 19.465,23.394c0,0 13.87,-11.965 18.393,-19.644c4.524,-7.679 8.751,-26.429 8.751,-26.429c0,0 -8.929,26.31 -4.286,26.608c2.6,0.166 13.005,0.703 20.502,-4.326c5.892,-3.953 9.031,-12.3 11.642,-20.496l-8.572,20.357l-2.321,14.287" style="fill:none;stroke-width:13px;stroke:#0f1642;"/><path d="M1075.87,197.819c-36.16,-3.973 -62.575,8.195 -81.61,32.591l-27.858,32.501c-5.554,7.232 -4.518,15.023 1.25,23.215c14.515,8.139 29.378,5.017 44.466,-5.357l19.644,-22.858c5.935,-6.094 7.408,-15.971 7.143,-27.323c0,0 -2.103,17.918 0.893,20.715c4.669,4.361 38.93,-5 38.93,-5" style="fill:none;stroke-width:13px;stroke:#0f1642;"/><path d="M936.222,193.087c-1.372,23.325 11.083,31.498 34.644,27.501c15.949,-6.031 32.069,-12.755 49.109,-23.215c4.878,-6.459 6.802,-13.694 7.5,-21.251c-0.755,5.863 -4.969,15.567 0.536,17.679c8.065,3.096 47.858,0.893 47.858,0.893" style="fill:none;stroke-width:13px;stroke:#0f1642;"/><path d="M1208.37,756c-65.424,-108.932 -75.688,-219.448 -33.215,-331.476l33.394,-114.647c6.107,-19.477 2.207,-38.94 -7.679,-58.395c-13.282,-24.152 -24.253,-50.22 -32.68,-78.396c-9.86,-22.573 -19.505,-40.971 -29.108,-58.573c-8.916,-18.602 -23.696,-29.585 -46.609,-30.001l-72.502,8.036c-22.156,6.362 -43.366,15.833 -63.038,30.358l-18.572,20.179c0,0 -25.239,13.804 -18.441,33.268c7.031,20.132 36.834,13.877 36.834,13.877l43.395,-14.465c16.018,-8.905 18.946,-29.863 19.822,-52.859c-1.219,17.782 -5.934,37.447 0,43.93c7.611,8.316 51.43,0 51.43,0l16.608,-40.716c0,0 -16.102,34.972 -15.358,51.252c0.744,16.28 19.822,46.43 19.822,46.43" style="fill:none;stroke-width:13px;stroke:#0f1642;"/><path d="M859.612,239.874c8.231,-10.893 19.304,-16.876 32.858,-18.572" style="fill:none;stroke-width:13px;stroke:#0f1642;"/></g></g></svg>