<?xml version="1.0" encoding="UTF-8" standalone="no"?><!DOCTYPE svg PUBLIC "-//W3C//DTD SVG 1.1//EN" "http://www.w3.org/Graphics/SVG/1.1/DTD/svg11.dtd"><svg width="100%" height="100%" viewBox="0 0 1344 756" version="1.1" xmlns="http://www.w3.org/2000/svg" xmlns:xlink="http://www.w3.org/1999/xlink" xml:space="preserve" style="fill-rule:evenodd;clip-rule:evenodd;stroke-linecap:round;stroke-linejoin:round;stroke-miterlimit:1.41421;"><g><g><path d="M1096.41,298.626c-22.195,3.137 -36.45,-8.16 -45.002,-29.822c-1.305,31.466 -10.895,46.912 -29.46,45.001" style="fill:none;stroke-width:13px;stroke:#0f1642;"/><path d="M901.578,461.489c11.959,-21.132 27.45,-39.237 59.37,-44.466" style="fill:none;stroke-width:13px;stroke:#0f1642;"/><path d="M1005.87,383.094c5.417,-4.226 12.844,-10.145 14.108,-17.485c1.373,-7.975 -3.717,-17.595 -5.179,-27.696l7.148,26.251c17.229,9.916 26.014,0.36 19.817,-43.751c1.358,21.854 8.225,36.722 25.358,38.573c7.921,-9.337 9.084,-21.074 9.108,-33.216c-4.291,26.238 -2.416,42.725 6.071,48.752" style="fill:none;stroke-width:13px;stroke:#0f1642;"/><path d="M985.331,754.178l-44.645,-94.646c-16.407,-37.265 -31.412,-76.564 -43.93,-119.469l-19.286,-61.788c-8.204,-29.893 -11.678,-60.758 -10.001,-92.681l-6.25,-78.753c-2.067,-22.46 4.978,-38.906 25.001,-46.787c18.459,-11.492 50.602,-6.36 67.049,10.179c6.255,6.289 6.129,23.395 9.718,38.376c5.328,22.235 11.417,33.974 20.915,48.234c9.498,14.259 19.537,37.247 36.073,37.322c10.048,0.046 22.696,-7.292 38.983,-11.081c36.586,-8.511 85.755,-18.621 124.058,-25.348" style="fill:none;stroke-width:13px;stroke:#0f1642;"/><path d="M1188.91,754.178c-25.661,-66.791 -28.28,-137.428 -7.5,-211.972l70.538,-166.434c21.169,-37.081 15.442,-70.174 -15.893,-99.468c-21.531,-17.14 -39.881,-36.397 -54.109,-58.395l-81.968,-77.86c-19.223,-14.262 -38.164,-12.663 -56.787,6.786l-56.609,58.574c-31.179,31.28 -35.826,57.23 -25.537,80.181c0,0 1.826,24.353 6.25,35.537c4.792,12.114 13.721,38.246 22.501,37.144c6.281,-0.787 17.484,-12.513 24.712,-26.014c2.877,-5.372 3.734,-12.114 5.468,-17.737c3.781,-12.267 11.708,-25.011 8.75,-37.502c-3.334,-14.077 -18.058,-34.829 -28.751,-46.965c0,0 23.889,33.834 31.787,43.215c6.209,7.376 21.01,-10.075 25.715,-19.822c7.084,-14.673 16.786,-68.216 16.786,-68.216c-3.444,22.499 -8.358,45.666 -6.301,63.184c0.998,8.497 5.615,15.987 9.158,20.747c9.007,12.097 25.775,16.786 38.395,16.965c12.619,0.178 37.322,-15.893 37.322,-15.893l-46.608,23.572c-11.01,5.483 -17.874,14.892 -17.274,24.633c0.611,9.909 5.536,20.041 7.452,26.976c2.667,9.654 -5.893,29.465 -5.893,29.465" style="fill:none;stroke-width:13px;stroke:#0f1642;"/></g></g></svg>