<?xml version="1.0" encoding="UTF-8" standalone="no"?><!DOCTYPE svg PUBLIC "-//W3C//DTD SVG 1.1//EN" "http://www.w3.org/Graphics/SVG/1.1/DTD/svg11.dtd"><svg width="100%" height="100%" viewBox="0 0 1344 756" version="1.1" xmlns="http://www.w3.org/2000/svg" xmlns:xlink="http://www.w3.org/1999/xlink" xml:space="preserve" style="fill-rule:evenodd;clip-rule:evenodd;stroke-linecap:round;stroke-linejoin:round;stroke-miterlimit:1.41421;"><g><g><path d="M1197.66,754.178c-23.349,-65.561 -21.188,-125.877 4.108,-181.435l69.466,-148.041c22.531,-37.337 24.162,-73.169 2.5,-107.325c-12.558,-16.576 -26.991,-26.754 -43.037,-31.43c-29.69,-11.685 -58.129,-27.563 -85.36,-45.537l-61.966,-24.644c-30.406,-16.206 -59.448,-21.042 -68.753,26.608l-9.107,58.931c-6.418,34.062 2.563,52.529 14.465,68.038c14.308,31.285 31.002,52.569 54.109,46.966l37.501,-4.822c-2.248,-17.904 -9.108,-27.471 -16.251,-37.501c-6.76,-9.493 -14.751,-20.539 -26.608,-22.679l-32.679,-7.322l38.572,6.429c8.661,0.474 10.799,-7.672 8.215,-19.287l-21.429,-75.538l25.358,80.717c5.529,9.594 17.759,11.339 25.715,7.322c12.508,-6.315 55.18,-27.858 55.18,-27.858c0,0 -59.734,28.88 -70.538,38.751c-7.941,7.256 9.614,18.929 12.143,28.394c2.458,9.196 3.036,28.394 3.036,28.394c8.922,2.719 18.72,-2.16 27.915,-4.148c10.87,-2.35 24.586,-8.638 37.304,-9.951c22.32,-2.306 36.083,-7.504 51.571,-14.831" style="fill:none;stroke-width:13px;stroke:#0f1642;"/><path d="M995.509,754.178c-27.604,-52.092 -54.636,-113.684 -69.466,-158.577c-11.163,-33.791 -18.255,-90.611 -16.965,-111.611c0.067,-1.095 -0.357,-2.213 -0.901,-3.166c-7.609,-13.308 -7.832,-62.061 -0.528,-86.659c5.817,-19.586 -2.321,-61.252 -2.321,-61.252c-5.903,-35.338 4.465,-52.728 26.965,-56.787c20.273,-11.898 42.245,3.901 53.216,9.643c7.479,3.914 13.579,10.001 17.864,19.822c-5.649,-19.902 -4.928,-47.217 10.173,-61.609" style="fill:none;stroke-width:13px;stroke:#0f1642;"/><path d="M1052.48,414.523l35.537,34.644" style="fill:none;stroke-width:13px;stroke:#0f1642;"/><path d="M1003.37,337.021l-10.721,-23.751" style="fill:none;stroke-width:13px;stroke:#0f1642;"/><path d="M929.614,449.167c21.792,-20.865 45.75,-34.505 73.759,-34.644" style="fill:none;stroke-width:13px;stroke:#0f1642;"/></g></g></svg>