<?xml version="1.0" encoding="UTF-8" standalone="no"?><!DOCTYPE svg PUBLIC "-//W3C//DTD SVG 1.1//EN" "http://www.w3.org/Graphics/SVG/1.1/DTD/svg11.dtd"><svg width="100%" height="100%" viewBox="0 0 1344 756" version="1.1" xmlns="http://www.w3.org/2000/svg" xmlns:xlink="http://www.w3.org/1999/xlink" xml:space="preserve" style="fill-rule:evenodd;clip-rule:evenodd;stroke-linecap:round;stroke-linejoin:round;stroke-miterlimit:1.41421;"><g><g><path d="M1177.3,755.249l-36.609,-115.361c-10.171,-41.015 -8.168,-69.819 25.537,-102.325l28.572,-31.429c12.835,-12.211 20.165,-27.334 19.644,-46.609l5.714,-85.182c5.319,-27.862 -1.149,-50.158 -10.536,-71.074c-5.855,-19.478 -0.537,-57.891 -8.393,-64.466c-32.996,-27.615 -65.021,59.854 -51.788,76.967c-1.992,14.157 0,30.626 4.286,36.43c4.256,5.762 21.43,-1.608 21.43,-1.608" style="fill:none;stroke-width:13px;stroke:#0f1642;"/><path d="M1149.98,343.271l-52.502,0.893l-44.287,16.429l-34.823,18.929" style="fill:none;stroke-width:13px;stroke:#0f1642;"/><path d="M922.114,349.521c8.048,-1.567 13.939,-6.385 19.286,-11.965" style="fill:none;stroke-width:13px;stroke:#0f1642;"/><path d="M944.258,382.379c3.715,-4.514 8.8,-8.614 15.179,-12.322" style="fill:none;stroke-width:13px;stroke:#0f1642;"/><path d="M1062.3,387.915c-18.672,25.631 -41.363,40.017 -66.074,48.752c0,0 -27.531,14.703 -35.001,27.144c-7.471,12.441 -9.822,47.501 -9.822,47.501c-10.541,49.564 -6.216,91.808 12.857,126.79l11.072,39.109l14.822,76.431" style="fill:none;stroke-width:13px;stroke:#0f1642;"/><path d="M971.937,408.273c-13.317,8.93 -16.254,29.585 -12.143,52.859" style="fill:none;stroke-width:13px;stroke:#0f1642;"/><path d="M1052.3,325.234c0,0 -16.642,0.572 -21.072,6.429c-4.435,5.864 -5.608,20.046 -5.536,28.751c0.301,15.292 -14.286,26.698 -22.322,27.144c-8.036,0.446 -18.11,-14.123 -25.894,-24.465l-18.751,-21.965l-26.786,-38.216c-21.911,-31.259 -47.622,-12.507 -30.001,17.144l18.572,31.251l21.429,32.144l16.429,40.894" style="fill:none;stroke-width:13px;stroke:#0f1642;"/><path d="M1023.19,280.59c0,0 -13.661,6.212 -13.572,12.322c0.155,10.61 20.358,38.037 20.358,38.037" style="fill:none;stroke-width:13px;stroke:#0f1642;"/><path d="M1070.33,309.52l-30.18,-34.644l-39.644,-39.288c-22.083,-21.883 -45.634,3.758 -26.073,23.751l32.323,33.037" style="fill:none;stroke-width:13px;stroke:#0f1642;"/><path d="M1098.01,292.019c0,0 -18.049,5.07 -22.679,12.322c-4.941,7.738 -6.965,34.108 -6.965,34.108c-1.626,10.076 -6.741,17.405 -14.465,21.429" style="fill:none;stroke-width:13px;stroke:#0f1642;"/><path d="M1072.83,238.981c0,0 -20.546,6.717 -20.358,15.18c0.238,10.744 21.786,49.287 21.786,49.287" style="fill:none;stroke-width:13px;stroke:#0f1642;"/><path d="M1121.94,284.697l-28.036,-43.751l-31.787,-45.716c-22.016,-31.663 -50.387,-6.76 -34.108,19.286l22.679,37.144" style="fill:none;stroke-width:13px;stroke:#0f1642;"/><path d="M1140.69,278.268c0,0 -13.881,1.73 -17.143,6.965c-4.971,7.976 -12.679,40.894 -12.679,40.894c-2.198,9.955 -8.386,15.141 -15.894,18.751" style="fill:none;stroke-width:13px;stroke:#0f1642;"/><path d="M1139.09,223.267c0,0 -21.162,4.532 -23.751,13.214c-2.946,9.882 6.072,46.073 6.072,46.073" style="fill:none;stroke-width:13px;stroke:#0f1642;"/><path d="M1164.8,249.517l-13.572,-35.894c-4.478,-16.1 -10.154,-28.822 -16.25,-40.358c-11.872,-22.464 -40.399,-5.354 -34.466,16.429l13.929,45.894" style="fill:none;stroke-width:13px;stroke:#0f1642;"/><path d="M1141.05,409.166c-6.422,5.455 -10.135,12.051 -13.708,17.094c-3.302,4.662 -6.588,7.79 -9.328,12.371" style="fill:none;stroke-width:13px;stroke:#0f1642;"/><path d="M1154.62,352.021c-3.053,-0.765 -13.984,32.224 -14.465,45.002c-0.151,4.016 0.614,10.403 3.6,14.832c4.752,7.051 13.365,11.419 13.365,11.419" style="fill:none;stroke-width:13px;stroke:#0f1642;"/><path d="M962.83,633.281c5.846,13.493 50.052,-17.592 99.468,-7.322" style="fill:none;stroke-width:13px;stroke:#0f1642;"/><path d="M981.938,562.564c22.068,-48.815 56.201,-86.563 105.539,-110.361" style="fill:none;stroke-width:13px;stroke:#0f1642;"/></g></g></svg>