<?xml version="1.0" encoding="UTF-8" standalone="no"?><!DOCTYPE svg PUBLIC "-//W3C//DTD SVG 1.1//EN" "http://www.w3.org/Graphics/SVG/1.1/DTD/svg11.dtd"><svg width="100%" height="100%" viewBox="0 0 1344 756" version="1.1" xmlns="http://www.w3.org/2000/svg" xmlns:xlink="http://www.w3.org/1999/xlink" xml:space="preserve" style="fill-rule:evenodd;clip-rule:evenodd;stroke-linecap:round;stroke-linejoin:round;stroke-miterlimit:1.41421;"><g><g><path d="M1209.8,446.667c-6.044,-16.505 -16.451,-31.925 -32.68,-45.894" style="fill:none;stroke-width:13px;stroke:#0f1642;"/><path d="M984.081,611.316c15.496,-1.56 31.965,-8.959 46.073,-11.786c12.72,-2.55 27.248,-1.322 38.572,-5.179" style="fill:none;stroke-width:13px;stroke:#0f1642;"/><path d="M1139.44,370.593c-64.949,25.318 -110.09,79.928 -85.36,156.791c14.944,34.81 44.032,45.874 77.145,50.181" style="fill:none;stroke-width:13px;stroke:#0f1642;"/><path d="M1115.16,356.843c-18.452,9.845 -35.359,21.989 -50.002,37.501c-18.91,20.83 -48.067,43.632 -62.145,54.109c-6.412,4.771 -14.739,7.835 -22.322,8.75" style="fill:none;stroke-width:13px;stroke:#0f1642;"/><path d="M895.685,317.734l21.072,-8.75" style="fill:none;stroke-width:13px;stroke:#0f1642;"/><path d="M912.292,353.271l18.93,-11.607" style="fill:none;stroke-width:13px;stroke:#0f1642;"/><path d="M1083.73,216.302c6.876,-5.756 15.425,-9.71 25.715,-11.786" style="fill:none;stroke-width:13px;stroke:#0f1642;"/><path d="M1059.08,354.878c-11.571,19.637 -27.159,38.922 -47.859,47.145c-19.903,7.906 -43.981,13.385 -64.288,25.536c-6.995,6.614 -8.188,14.83 -5.536,24.108c7.587,58.881 19.067,113.47 36.073,161.97l9.108,37.144c4.48,37.404 11.95,70.942 20.536,103.04" style="fill:none;stroke-width:13px;stroke:#0f1642;"/><path d="M1095.87,265.768c8.332,-3.797 16.947,-6.396 26.251,-6.072" style="fill:none;stroke-width:13px;stroke:#0f1642;"/><path d="M946.043,382.558c-10.184,8.858 -16.483,19.073 -10,33.751l3.929,20.358" style="fill:none;stroke-width:13px;stroke:#0f1642;"/><path d="M1005.69,301.484c0,0 -17.93,1.309 -20.179,8.214c-2.946,9.048 5,37.531 2.5,46.073c-1.709,5.839 -12.401,8.496 -17.5,5.179c-8.007,-5.209 -30.537,-36.43 -30.537,-36.43l-13.929,-23.929l-3.929,-29.466c-11.915,-32.006 -41.835,-22.671 -38.93,9.286c1.547,15.345 4.991,29.076 10.893,40.716l38.752,81.61" style="fill:none;stroke-width:13px;stroke:#0f1642;"/><path d="M978.902,264.161c0,0 -13.966,5.829 -13.572,11.786c0.476,7.199 18.215,31.251 18.215,31.251" style="fill:none;stroke-width:13px;stroke:#0f1642;"/><path d="M1032.83,328.092l-4.821,-29.287l-15.358,-27.322l-32.858,-44.466c-34.792,-47.083 -72.8,-5.503 -35.002,23.572l18.037,21.965" style="fill:none;stroke-width:13px;stroke:#0f1642;"/><path d="M1031.94,276.84c-0.725,15.668 0.578,29.673 3.75,42.144c0.638,8.284 -3.49,13.04 -9.464,16.429" style="fill:none;stroke-width:13px;stroke:#0f1642;"/><path d="M1024.97,211.123c-4.607,4.789 -11.029,8.661 -19.287,11.608c5.61,18.562 18.037,44.317 25.537,52.145c4.645,4.847 19.465,-5.179 19.465,-5.179" style="fill:none;stroke-width:13px;stroke:#0f1642;"/><path d="M1083.73,316.306c0,0 -4.613,-34.079 -7.5,-45.716c-2.09,-8.422 -9.822,-24.108 -9.822,-24.108l-25.715,-46.788l-28.394,-45.358c-20.535,-19.813 -48.213,-4.88 -35.359,23.215l28.573,44.466" style="fill:none;stroke-width:13px;stroke:#0f1642;"/><path d="M1232.3,315.77c0,0 -24.315,0.218 -31.786,8.214c-8.461,9.056 -8.581,46.082 -6.429,46.073l25.269,11.787c0,0 -15.494,-6.747 -22.412,-9.644c-7.372,-3.087 -17.084,20.12 -23.929,21.965c-6.538,1.763 -13.922,-0.521 -17.144,-10.893c-4.676,-17.437 -7.422,-35.307 -10,-53.216c0,0 -1.488,-46.043 -3.929,-62.502c-1.848,-12.464 -10.715,-36.251 -10.715,-36.251l-28.393,-73.039c-10.673,-27.453 -42.047,-13.665 -36.43,7.501c2.983,18.157 7.087,35.526 14.286,50.716l13.393,48.751c-2.239,17.296 -2.032,30.862 -1.071,45.18c-0.263,7.473 -8.879,9.423 -17.679,11.251" style="fill:none;stroke-width:13px;stroke:#0f1642;"/><path d="M1220.16,754.178l-44.823,-157.684c-6.851,-19.079 -5.216,-37.781 9.643,-55.895c20.527,-29.884 42.248,-56.137 63.931,-82.503c10.077,-9.191 15.98,-22.24 16.786,-40.001c-2.247,-29.175 -2.647,-58.342 -1.607,-87.503c0.325,-10.426 -0.182,-20.381 -2.477,-29.714c-3.831,-15.574 -10.733,-29.416 -13.059,-40.824c-2.632,-12.907 -6.786,-38.93 -6.786,-38.93c-16.144,-12.186 -33.58,-4.762 -39.108,18.215c-9.877,41.043 -14.424,74.142 -2.858,83.217" style="fill:none;stroke-width:13px;stroke:#0f1642;"/><path d="M1126.23,313.091l-33.572,4.107c-18.679,4.614 -40.268,6.859 -59.288,14.644l-35.716,19.465c-17.853,11.829 -34.384,21.311 -51.073,31.072" style="fill:none;stroke-width:13px;stroke:#0f1642;"/></g></g></svg>