<?xml version="1.0" encoding="UTF-8" standalone="no"?><!DOCTYPE svg PUBLIC "-//W3C//DTD SVG 1.1//EN" "http://www.w3.org/Graphics/SVG/1.1/DTD/svg11.dtd"><svg width="100%" height="100%" viewBox="0 0 1344 756" version="1.1" xmlns="http://www.w3.org/2000/svg" xmlns:xlink="http://www.w3.org/1999/xlink" xml:space="preserve" style="fill-rule:evenodd;clip-rule:evenodd;stroke-linecap:round;stroke-linejoin:round;stroke-miterlimit:1.41421;"><g><g><path d="M1188.02,754.178c-23.349,-65.561 -28.51,-130.699 -3.214,-186.257l71.252,-162.327c22.531,-37.337 31.841,-58.168 10.179,-92.324c-12.558,-16.577 -20.252,-29.176 -38.573,-39.109c-31.772,-17.227 -36.879,-34.884 -64.109,-52.859l-62.502,-48.93c-15.855,-16.398 -36.447,-19.771 -52.549,-8.569c-17.309,12.042 -29.848,39.814 -38.169,53.213c-13.761,22.162 -25.349,44.268 -38.037,68.396c-6.418,34.062 21.327,62.318 34.466,85.538c11.52,20.358 16.446,33.485 23.572,31.966c11.985,-2.556 21.267,-26.376 19.108,-41.43c-1.342,-9.354 0.086,-27.444 -3.88,-41.684c-5.184,-18.612 -17.303,-33.809 -33.8,-46.355l31.965,33.037c8.661,0.474 25.621,-0.707 23.037,-12.322l3.75,-84.467l3.036,81.61c5.529,9.593 26.106,14.182 35.001,14.732c15.717,0.972 58.216,-22.411 58.216,-22.411c0,0 -58.937,29.909 -71.788,36.43c-5.55,2.816 0.084,25.505 1.603,43.073c1.107,12.795 -2.317,22.286 -2.317,22.286c8.922,2.719 18.603,-2.812 27.915,-4.147c10.989,-1.576 25.3,-3.995 38.018,-5.309c22.32,-2.306 6.504,-0.663 24.606,-2.509" style="fill:none;stroke-width:13px;stroke:#0f1642;"/><path d="M991.224,754.178c-27.605,-52.092 -57.494,-113.684 -72.324,-158.577c-11.163,-33.791 -27.459,-96.241 -28.76,-104.598c-2.358,-15.147 -13.189,-72.371 -5.884,-96.969c5.816,-19.587 -4.822,-75.407 -4.822,-75.407c-5.903,-35.338 4.287,-49.157 26.787,-53.216c20.273,-11.898 46.618,-4.186 54.287,5.536c5.43,6.883 8.394,6.251 12.679,16.072" style="fill:none;stroke-width:13px;stroke:#0f1642;"/><path d="M1032.12,405.416c20.291,-8.111 45.022,-15.958 67.145,-19.287" style="fill:none;stroke-width:13px;stroke:#0f1642;"/><path d="M929.614,449.167c21.792,-20.865 45.75,-34.505 73.759,-34.644" style="fill:none;stroke-width:13px;stroke:#0f1642;"/></g></g></svg>