<?xml version="1.0" encoding="UTF-8" standalone="no"?><!DOCTYPE svg PUBLIC "-//W3C//DTD SVG 1.1//EN" "http://www.w3.org/Graphics/SVG/1.1/DTD/svg11.dtd"><svg width="100%" height="100%" viewBox="0 0 1344 756" version="1.1" xmlns="http://www.w3.org/2000/svg" xmlns:xlink="http://www.w3.org/1999/xlink" xml:space="preserve" style="fill-rule:evenodd;clip-rule:evenodd;stroke-linecap:round;stroke-linejoin:round;stroke-miterlimit:1.41421;"><g><g><path d="M1224.98,243.982c-33.023,9.101 -40.825,-2.989 -36.609,-25.18c7.342,-24.618 25.098,-36.616 58.217,-30.001" style="fill:none;stroke-width:13px;stroke:#0f1642;"/><path d="M1036.22,409.702c-21.148,-0.091 -35.597,9.846 -41.787,32.144l-15.179,35.358l-23.215,52.68c-15.01,36.699 -13.717,68.543 -2.143,97.325l40.716,126.433" style="fill:none;stroke-width:13px;stroke:#0f1642;"/><path d="M1007.47,328.627c0,0 -11.031,8.823 -10.893,15.001c0.208,9.316 12.143,40.894 12.143,40.894" style="fill:none;stroke-width:13px;stroke:#0f1642;"/><path d="M981.045,295.412c-7.011,4.074 -12.073,8.88 -15.537,14.286l29.466,31.43" style="fill:none;stroke-width:13px;stroke:#0f1642;"/><path d="M1051.58,347.021l-20.001,-29.465l-18.75,-18.93c-9.657,-5.366 -19.148,-14.441 -28.573,-25.001l-27.858,-25.536c-21.668,-19.862 -43.546,5.454 -23.929,26.965c9.756,12.052 19.63,23.934 31.429,33.037" style="fill:none;stroke-width:13px;stroke:#0f1642;"/><path d="M1102.84,323.449l-24.108,15.357" style="fill:none;stroke-width:13px;stroke:#0f1642;"/><path d="M1109.44,280.59c-12.305,1.411 -23.263,9.236 -25.687,21.225c-2.412,11.925 3.695,28.002 -2.954,34.681c-13.334,13.393 -51.362,24.454 -51.362,24.454c-21.365,14.792 -26.882,35.696 -25.894,59.109" style="fill:none;stroke-width:13px;stroke:#0f1642;"/><path d="M1064.8,237.553c0,0 -12.252,13.533 -9.465,20.536c3.423,8.602 30.001,31.073 30.001,31.073" style="fill:none;stroke-width:13px;stroke:#0f1642;"/><path d="M1123.73,255.053l-53.216,-38.93l-35.894,-15.893l-16.072,-6.607c-23.286,-9.574 -35.039,24.499 -12.858,36.43l47.145,25.358" style="fill:none;stroke-width:13px;stroke:#0f1642;"/><path d="M1109.98,186.122c-8.397,3.326 -14.14,11.431 -18.037,22.858c6.753,14.477 20.263,29.254 35.537,44.109" style="fill:none;stroke-width:13px;stroke:#0f1642;"/><path d="M1117.84,164.693l-40.537,-26.608c-33.337,-18.035 -49.737,20.059 -26.072,38.394l39.644,30.716" style="fill:none;stroke-width:13px;stroke:#0f1642;"/><path d="M1163.19,162.55c0,0 -19.667,15.618 -21.553,24.23c-1.95,8.899 9.856,29.165 9.856,29.165" style="fill:none;stroke-width:13px;stroke:#0f1642;"/><path d="M1196.77,172.908c-13.635,-19.253 -27.663,-37.161 -43.215,-49.823l-28.751,-20.894c-13.42,-9.753 -38.027,22.282 -18.572,45.359l33.572,39.822" style="fill:none;stroke-width:13px;stroke:#0f1642;"/><path d="M1105.87,314.341c0,0 -8.333,44.079 -16.607,61.788c-2.41,5.157 -8.616,11.361 -13.085,17.475c-10.028,13.72 -10.816,20.533 -19.952,26.991c-22.329,15.783 -56.788,55.895 -56.788,55.895" style="fill:none;stroke-width:13px;stroke:#0f1642;"/><path d="M1166.94,754.178c-43.301,-77.616 -56.759,-172.674 -36.787,-217.508c9.982,-22.408 24.707,-21.603 34.287,-76.967c0,0 8.229,-39.533 13.599,-54.785c4.559,-12.946 11.044,-13.404 18.623,-36.725c3.565,-10.969 4.944,-35.19 4.944,-35.19c8.152,-23.096 15.193,-46.746 20.336,-71.342c7.3,-24.009 16.48,-47.484 27.144,-70.538c-13.845,-31.678 -50.84,-23.585 -68.396,-8.751c-12.221,10.328 -33.002,37.115 -49.323,63.779c-15.816,25.837 -23.362,53.265 -25.143,65.69c-1.243,8.665 12.5,12.322 12.5,12.322" style="fill:none;stroke-width:13px;stroke:#0f1642;"/></g></g></svg>