<?xml version="1.0" encoding="UTF-8" standalone="no"?><!DOCTYPE svg PUBLIC "-//W3C//DTD SVG 1.1//EN" "http://www.w3.org/Graphics/SVG/1.1/DTD/svg11.dtd"><svg width="100%" height="100%" viewBox="0 0 1344 756" version="1.1" xmlns="http://www.w3.org/2000/svg" xmlns:xlink="http://www.w3.org/1999/xlink" xml:space="preserve" style="fill-rule:evenodd;clip-rule:evenodd;stroke-linecap:round;stroke-linejoin:round;stroke-miterlimit:1.41421;"><g><g><path d="M891.22,209.516c6.323,10.174 12.63,14.109 18.929,15.179c16.289,-1.649 32.503,-3.745 47.502,-13.036l2.322,-18.572" style="fill:none;stroke-width:13px;stroke:#0f1642;"/><path d="M964.616,487.383c22.069,-12.618 43.993,-22.723 65.538,-26.251" style="fill:none;stroke-width:13px;stroke:#0f1642;"/><path d="M930.686,302.376c18.761,-10.341 38.001,-14.151 57.68,-11.964" style="fill:none;stroke-width:13px;stroke:#0f1642;"/><path d="M1071.05,304.162c0,0 -13.691,10.417 -12.858,17.144c0.834,6.726 17.858,23.215 17.858,23.215" style="fill:none;stroke-width:13px;stroke:#0f1642;"/><path d="M1091.76,302.555c-13.897,-10.554 -28.055,-18.6 -42.68,-22.144l-28.215,-3.75c-13.92,3.835 -9.891,26.854 2.142,31.073l33.037,13.572" style="fill:none;stroke-width:13px;stroke:#0f1642;"/><path d="M1089.26,222.195c0,0 -7.21,13.403 -6.436,19.058c0.774,5.655 11.079,14.872 11.079,14.872c10.233,8.067 17.388,16.1 22.322,24.108" style="fill:none;stroke-width:13px;stroke:#0f1642;"/><path d="M1134.44,223.445l-31.073,-21.429c0,0 -27.084,-11.965 -38.037,-15.715c-8.987,-3.077 -27.679,-6.786 -27.679,-6.786c-30.243,-2.396 -25.1,38.061 0.536,43.752l42.322,17.143" style="fill:none;stroke-width:13px;stroke:#0f1642;"/><path d="M1113.37,157.729c-15.427,16.087 -24.811,21.96 -1.072,44.644l24.108,23.037" style="fill:none;stroke-width:13px;stroke:#0f1642;"/><path d="M1094.62,119.87c0,0 -31.707,-12.991 -41.073,-11.072c-21.28,4.361 -22.121,27.558 -4.643,45.716l47.502,28.037" style="fill:none;stroke-width:13px;stroke:#0f1642;"/><path d="M1054.44,452.025l-28.929,-84.468l-24.823,-94.289l-41.251,-90.539c-20.352,-44.668 -71.197,-26.556 -72.681,18.573c-5.943,42.048 1.797,80.711 22.143,116.254c0,0 24.227,70.776 26.787,97.86c0.921,9.75 -3.537,19.373 -6.204,28.977c-3.293,11.855 -5.073,23.679 -5.225,35.668c-15.661,65.095 -12.45,110.174 4.464,140.719l27.859,77.682l22.857,55.537" style="fill:none;stroke-width:13px;stroke:#0f1642;"/><path d="M1081.4,399.88l-16.607,44.823" style="fill:none;stroke-width:13px;stroke:#0f1642;"/><path d="M1085.15,370.593c-16.985,9.321 -31.175,22.959 -45.358,36.609" style="fill:none;stroke-width:13px;stroke:#0f1642;"/><path d="M1086.94,348.092c0,0 -18.743,18.946 -25.439,27.309c-5.669,7.08 -14.741,22.872 -14.741,22.872" style="fill:none;stroke-width:13px;stroke:#0f1642;"/><path d="M1152.66,279.34c-23.962,-6.244 -44.236,-0.045 -58.395,26.787c-9.469,18.185 -16.27,36.566 -22.322,55.002" style="fill:none;stroke-width:13px;stroke:#0f1642;"/><path d="M1176.59,188.623c-26.595,14.661 -41.268,37.156 -45.894,66.252l-9.286,23.572" style="fill:none;stroke-width:13px;stroke:#0f1642;"/><path d="M1142.48,127.37c-18.308,15.2 -23.112,31.3 -7.679,48.752l17.143,26.072" style="fill:none;stroke-width:13px;stroke:#0f1642;"/><path d="M1154.62,751.678c-50.114,-79.956 -54.516,-168.367 -17.322,-264.474l39.823,-105.182c7.252,-10.548 13.475,-23.766 13.202,-53.847l9.477,-38.656l21.43,-81.967c8.229,-18.446 1.048,-33.836 -13.929,-47.68l-49.466,-59.11l-57.86,-41.965c-24.738,6.914 -29.903,24.185 -9.464,55.001l32.679,35.537" style="fill:none;stroke-width:13px;stroke:#0f1642;"/></g></g></svg>