<?xml version="1.0" encoding="UTF-8" standalone="no"?><!DOCTYPE svg PUBLIC "-//W3C//DTD SVG 1.1//EN" "http://www.w3.org/Graphics/SVG/1.1/DTD/svg11.dtd"><svg width="100%" height="100%" viewBox="0 0 1344 756" version="1.1" xmlns="http://www.w3.org/2000/svg" xmlns:xlink="http://www.w3.org/1999/xlink" xml:space="preserve" style="fill-rule:evenodd;clip-rule:evenodd;stroke-linecap:round;stroke-linejoin:round;stroke-miterlimit:1.41421;"><g><g><path d="M869.791,240.767c1.254,7.626 7.306,8.458 17.143,3.929c12.51,-7.317 25.089,-9.708 37.68,-11.25c3.996,-0.922 4.599,-3.748 1.965,-8.394" style="fill:none;stroke-width:13px;stroke:#0f1642;"/><path d="M951.401,451.132c17.596,-20.133 38.706,-34.339 66.788,-36.787" style="fill:none;stroke-width:13px;stroke:#0f1642;"/><path d="M1072.65,387.022c9.728,-17.05 19.506,-36.246 25.358,-53.037" style="fill:none;stroke-width:13px;stroke:#0f1642;"/><path d="M1031.05,380.951c19.312,-6.724 38.73,-15.48 58.395,-28.93" style="fill:none;stroke-width:13px;stroke:#0f1642;"/><path d="M1013.72,754.178l-48.037,-124.826c-28.016,-50.987 -41.341,-110.668 -45.894,-175.542c-2.013,-11.611 -5.172,-24.024 -5.201,-35.182c-0.023,-9.319 3.001,-17.169 2.522,-28.57c-1.119,-26.621 -15.704,-69.451 -37.144,-91.074c-11.858,-18.12 -17.958,-37.809 -10.893,-60.36c3.427,-16.112 9.582,-24.867 19.691,-27.588c8.117,-2.184 18.782,-1.114 32.632,7.945c32.171,19.522 53.236,52.519 68.395,92.682c15.077,36.444 35.168,67.352 59.824,93.217" style="fill:none;stroke-width:13px;stroke:#0f1642;"/><path d="M1092.12,288.626c-16.478,-6.886 -31.053,-8.579 -42.323,-1.25c-12.431,4.58 -24.259,9.172 -28.572,13.929c-4.544,11.422 -1.324,19.101 14.107,20.894c16.601,2.776 30.946,-2.591 41.609,-21.251l-11.965,16.608c-0.819,8.854 8.227,11.04 14.286,11.071" style="fill:none;stroke-width:13px;stroke:#0f1642;"/><path d="M1125.87,216.123c-29.198,-10.493 -56.203,-12.035 -80.538,-2.678l-36.609,13.393c-21.266,7.781 -6.394,43.022 21.43,36.251l46.965,-11.429l5.001,-18.929c-3.718,12.704 -4.957,22.004 -0.179,23.037c7.682,4.705 16.888,7.747 29.108,7.5" style="fill:none;stroke-width:13px;stroke:#0f1642;"/><path d="M1064.8,135.228c-29.36,2.777 -60.531,4.53 -61.431,23.393c-1.495,20.401 12.205,28.491 34.465,29.644l43.216,1.608l9.643,-30.359c0,0 -8.059,23.357 -7.91,30.083c0.1,4.51 8.803,10.276 8.803,10.276c12.023,6.793 24.554,11.552 37.323,15.358" style="fill:none;stroke-width:13px;stroke:#0f1642;"/><path d="M1194.09,752.749c-59.57,-100.02 -69.906,-196.825 -39.466,-289.474l34.108,-106.968c10.871,-18.494 8.016,-38.063 8.751,-57.145c0.504,-13.097 5.706,-37.795 9.637,-60.669c4.626,-26.912 8.042,-51.299 8.042,-51.299c7.982,-22.983 0.978,-36.147 -11.786,-45.537l-62.145,-41.43c-16.961,-7.37 -34.479,-12.704 -52.681,-15.537c0,0 -25.978,-4.21 -33.865,-1.918c-6.611,1.921 -12.954,8.802 -13.458,15.669c-1.513,20.629 11.831,31.521 24.644,35.537c14.407,8.166 28.794,15.494 43.037,16.786l12.858,-29.822c-11.337,21.134 -13.231,37.821 -2.143,48.394l24.465,19.644l24.822,-23.394c-30.336,26.188 -46.689,64.396 -42.144,87.324l23.215,-3.035c-24.381,1.145 -42.458,15.292 -55.002,32.501c-7.236,9.926 -10.14,32.758 -14.495,50.448c-3.545,14.399 -8.898,30.269 -8.898,30.269" style="fill:none;stroke-width:13px;stroke:#0f1642;"/></g></g></svg>