<?xml version="1.0" encoding="UTF-8" standalone="no"?><!DOCTYPE svg PUBLIC "-//W3C//DTD SVG 1.1//EN" "http://www.w3.org/Graphics/SVG/1.1/DTD/svg11.dtd"><svg width="100%" height="100%" viewBox="0 0 1344 756" version="1.1" xmlns="http://www.w3.org/2000/svg" xmlns:xlink="http://www.w3.org/1999/xlink" xml:space="preserve" style="fill-rule:evenodd;clip-rule:evenodd;stroke-linecap:round;stroke-linejoin:round;stroke-miterlimit:1.41421;"><g><g><path d="M943.901,238.089c1.9,-12.484 10.452,-24.482 23.036,-35.716" style="fill:none;stroke-width:13px;stroke:#0f1642;"/><path d="M1073.19,345.057c-24.624,-6.47 -28.051,-31.69 -25.358,-62.324c-0.227,26.641 -3.078,50.557 -16.251,63.752l-11.607,-10.357c10.251,10.213 14.752,20.216 8.393,29.822" style="fill:none;stroke-width:13px;stroke:#0f1642;"/><path d="M1073.19,245.053l-19.822,-11.072" style="fill:none;stroke-width:13px;stroke:#0f1642;"/><path d="M1102.66,265.232c-19.545,-5.424 -34.348,-18.133 -40.001,-44.901c-15.011,22.421 -31.664,35.15 -50.002,37.937c-10.113,31.174 -21.397,50.665 -33.751,59.466" style="fill:none;stroke-width:13px;stroke:#0f1642;"/><path d="M959.258,278.804l0,-4.286" style="fill:none;stroke-width:13px;stroke:#0f1642;"/><path d="M1095.33,288.983c-8.28,5.042 -15.622,27.866 -22.143,60.538" style="fill:none;stroke-width:13px;stroke:#0f1642;"/><path d="M1198.02,323.984c-38.677,7.664 -85.881,17.448 -124.826,28.017c-20.995,5.697 -39.577,19.134 -53.216,15.913c-27.719,-6.544 -57.211,-79.737 -59.467,-78.931l-13.214,-39.823c-2.146,-6.466 -9.397,-18.73 -20.386,-24.465c-11.872,-6.195 -27.808,-5.429 -38.009,0c-26.075,9.223 -42.186,24.899 -34.644,55.895c7.295,35.102 6.206,70.607 9.464,105.897c5.029,54.467 32.902,144.32 55.716,207.864l24.466,43.869l52.68,115.958" style="fill:none;stroke-width:13px;stroke:#0f1642;"/><path d="M1164.27,231.481c-37.024,11.778 -68.91,26.846 -65.002,64.824c1.791,22.17 -0.875,36.515 -3.929,50.18" style="fill:none;stroke-width:13px;stroke:#0f1642;"/><path d="M1198.02,754.178c-36.023,-89.963 -41.11,-182.273 1.785,-278.224l51.252,-126.612c21.344,-29.75 17.726,-60.528 -1.964,-91.967l-99.468,-156.077c-18.47,-22.347 -39.564,-22.546 -61.788,-13.215l-67.859,37.144c-26.596,16.084 -45.935,37.773 -50.002,71.253l-15.715,58.216c2.648,19.732 11.359,26.276 25.715,20.537c11.453,-4.68 23.257,-11.252 31.615,-21.938c12.1,-15.472 25.073,-32.634 27.316,-45.208c2.888,-16.193 -13.751,-54.287 -13.751,-54.287c0,0 13.844,39.001 17.144,48.573c3.666,10.635 29.411,-1.849 39.14,-11.327c10.358,-10.09 23.005,-49.211 23.005,-49.211c-13.742,31.759 -21.8,63.8 -4.107,81.967l28.751,21.787" style="fill:none;stroke-width:13px;stroke:#0f1642;"/><path d="M912.608,442.418c11.96,-21.133 39.415,-41.202 71.335,-46.431" style="fill:none;stroke-width:13px;stroke:#0f1642;"/></g></g></svg>